<?xml version="1.0" encoding="UTF-8" standalone="no"?>
<!-- Created with Inkscape (http://www.inkscape.org/) -->

<svg
   width="20.87676mm"
   height="16.33605mm"
   viewBox="0 0 20.87676 16.33605"
   version="1.1"
   id="svg1"
   inkscape:version="1.3.2 (091e20e, 2023-11-25)"
   sodipodi:docname="shopingcart.svg"
   inkscape:export-filename="favicon.png"
   inkscape:export-xdpi="96"
   inkscape:export-ydpi="96"
   xmlns:inkscape="http://www.inkscape.org/namespaces/inkscape"
   xmlns:sodipodi="http://sodipodi.sourceforge.net/DTD/sodipodi-0.dtd"
   xmlns="http://www.w3.org/2000/svg"
   xmlns:svg="http://www.w3.org/2000/svg">
  <sodipodi:namedview
     id="namedview1"
     pagecolor="#ffffff"
     bordercolor="#000000"
     borderopacity="0.25"
     inkscape:showpageshadow="2"
     inkscape:pageopacity="0.0"
     inkscape:pagecheckerboard="true"
     inkscape:deskcolor="#d1d1d1"
     inkscape:document-units="mm"
     inkscape:zoom="1.2908983"
     inkscape:cx="25.563594"
     inkscape:cy="-22.852304"
     inkscape:window-width="1504"
     inkscape:window-height="1040"
     inkscape:window-x="157"
     inkscape:window-y="39"
     inkscape:window-maximized="0"
     inkscape:current-layer="layer1"
     showguides="false" />
  <defs
     id="defs1">
    <rect
       x="196.07651"
       y="90.702049"
       width="469.51651"
       height="118.71298"
       id="rect2" />
    <rect
       x="196.07651"
       y="90.702049"
       width="469.51651"
       height="118.71298"
       id="rect2-4" />
    <rect
       x="196.07651"
       y="90.702049"
       width="175.55058"
       height="54.895901"
       id="rect2-9" />
  </defs>
  <g
     inkscape:label="Capa 1"
     inkscape:groupmode="layer"
     id="layer1"
     transform="translate(-159.46601,-96.72673)">
    <path
       id="path5-6-7-8"
       style="-inkscape-font-specification:'Bangla MN';fill:#fffbef;fill-opacity:1;stroke-width:0.082821"
       d="m 159.46601,96.72673 v 0.627942 l 0.61654,1.57993 h 2.28286 l 3.27737,8.556108 1.71105,4.46792 0.42316,1.10415 h 2.36397 5.83168 l 0.61698,-1.58037 v -0.6275 h -0.61698 -6.67711 l -1.5909,-4.15351 -3.8163,-9.963706 -1.52292,-0.0096 v -0.0013 z m 6.13468,1.517231 v 0.627941 l 0.61697,1.579928 h 10.95604 l -1.43172,3.54926 -7.17042,3.19846 0.25565,0.57355 1.2072,1.19186 4.51835,-2.01581 2.90378,-1.29534 1.18878,-2.94806 1.69745,-4.207892 -0.58233,-0.234601 -1.41769,-0.01622 v -0.0031 h -0.27844 z" />
  </g>
</svg>
