<svg id="visual" viewBox="0 0 900 600" width="900" height="600" xmlns="http://www.w3.org/2000/svg" xmlns:xlink="http://www.w3.org/1999/xlink" version="1.1"><rect x="0" y="0" width="900" height="600" fill="#efebde"></rect><path d="M404 600L414.8 585.7C425.7 571.3 447.3 542.7 440.2 514.2C433 485.7 397 457.3 381.8 428.8C366.7 400.3 372.3 371.7 384.5 343C396.7 314.3 415.3 285.7 413.3 257C411.3 228.3 388.7 199.7 380.7 171.2C372.7 142.7 379.3 114.3 390.8 85.8C402.3 57.3 418.7 28.7 426.8 14.3L435 0L900 0L900 14.3C900 28.7 900 57.3 900 85.8C900 114.3 900 142.7 900 171.2C900 199.7 900 228.3 900 257C900 285.7 900 314.3 900 343C900 371.7 900 400.3 900 428.8C900 457.3 900 485.7 900 514.2C900 542.7 900 571.3 900 585.7L900 600Z" fill="#d3e1f6"></path><path d="M512 600L504 585.7C496 571.3 480 542.7 469.2 514.2C458.3 485.7 452.7 457.3 449.8 428.8C447 400.3 447 371.7 448 343C449 314.3 451 285.7 462 257C473 228.3 493 199.7 485.8 171.2C478.7 142.7 444.3 114.3 428.2 85.8C412 57.3 414 28.7 415 14.3L416 0L900 0L900 14.3C900 28.7 900 57.3 900 85.8C900 114.3 900 142.7 900 171.2C900 199.7 900 228.3 900 257C900 285.7 900 314.3 900 343C900 371.7 900 400.3 900 428.8C900 457.3 900 485.7 900 514.2C900 542.7 900 571.3 900 585.7L900 600Z" fill="#c0d0e6"></path><path d="M544 600L532.8 585.7C521.7 571.3 499.3 542.7 507.2 514.2C515 485.7 553 457.3 560.3 428.8C567.7 400.3 544.3 371.7 532.8 343C521.3 314.3 521.7 285.7 514.5 257C507.3 228.3 492.7 199.7 502.8 171.2C513 142.7 548 114.3 563.8 85.8C579.7 57.3 576.3 28.7 574.7 14.3L573 0L900 0L900 14.3C900 28.7 900 57.3 900 85.8C900 114.3 900 142.7 900 171.2C900 199.7 900 228.3 900 257C900 285.7 900 314.3 900 343C900 371.7 900 400.3 900 428.8C900 457.3 900 485.7 900 514.2C900 542.7 900 571.3 900 585.7L900 600Z" fill="#adbed7"></path><path d="M541 600L548.5 585.7C556 571.3 571 542.7 579.8 514.2C588.7 485.7 591.3 457.3 592.8 428.8C594.3 400.3 594.7 371.7 599.7 343C604.7 314.3 614.3 285.7 616 257C617.7 228.3 611.3 199.7 607.3 171.2C603.3 142.7 601.7 114.3 594.3 85.8C587 57.3 574 28.7 567.5 14.3L561 0L900 0L900 14.3C900 28.7 900 57.3 900 85.8C900 114.3 900 142.7 900 171.2C900 199.7 900 228.3 900 257C900 285.7 900 314.3 900 343C900 371.7 900 400.3 900 428.8C900 457.3 900 485.7 900 514.2C900 542.7 900 571.3 900 585.7L900 600Z" fill="#9badc8"></path><path d="M628 600L633.5 585.7C639 571.3 650 542.7 651 514.2C652 485.7 643 457.3 648.5 428.8C654 400.3 674 371.7 677 343C680 314.3 666 285.7 664.5 257C663 228.3 674 199.7 677.3 171.2C680.7 142.7 676.3 114.3 668.7 85.8C661 57.3 650 28.7 644.5 14.3L639 0L900 0L900 14.3C900 28.7 900 57.3 900 85.8C900 114.3 900 142.7 900 171.2C900 199.7 900 228.3 900 257C900 285.7 900 314.3 900 343C900 371.7 900 400.3 900 428.8C900 457.3 900 485.7 900 514.2C900 542.7 900 571.3 900 585.7L900 600Z" fill="#899db9"></path><path d="M686 600L683.5 585.7C681 571.3 676 542.7 680 514.2C684 485.7 697 457.3 699.3 428.8C701.7 400.3 693.3 371.7 697.8 343C702.3 314.3 719.7 285.7 717.3 257C715 228.3 693 199.7 687 171.2C681 142.7 691 114.3 697.5 85.8C704 57.3 707 28.7 708.5 14.3L710 0L900 0L900 14.3C900 28.7 900 57.3 900 85.8C900 114.3 900 142.7 900 171.2C900 199.7 900 228.3 900 257C900 285.7 900 314.3 900 343C900 371.7 900 400.3 900 428.8C900 457.3 900 485.7 900 514.2C900 542.7 900 571.3 900 585.7L900 600Z" fill="#778caa"></path><path d="M791 600L788.2 585.7C785.3 571.3 779.7 542.7 771.8 514.2C764 485.7 754 457.3 756.5 428.8C759 400.3 774 371.7 780.8 343C787.7 314.3 786.3 285.7 777 257C767.7 228.3 750.3 199.7 748.5 171.2C746.7 142.7 760.3 114.3 764 85.8C767.7 57.3 761.3 28.7 758.2 14.3L755 0L900 0L900 14.3C900 28.7 900 57.3 900 85.8C900 114.3 900 142.7 900 171.2C900 199.7 900 228.3 900 257C900 285.7 900 314.3 900 343C900 371.7 900 400.3 900 428.8C900 457.3 900 485.7 900 514.2C900 542.7 900 571.3 900 585.7L900 600Z" fill="#667c9b"></path><path d="M800 600L802.3 585.7C804.7 571.3 809.3 542.7 810.2 514.2C811 485.7 808 457.3 805.5 428.8C803 400.3 801 371.7 804.7 343C808.3 314.3 817.7 285.7 823.2 257C828.7 228.3 830.3 199.7 834.7 171.2C839 142.7 846 114.3 849.7 85.8C853.3 57.3 853.7 28.7 853.8 14.3L854 0L900 0L900 14.3C900 28.7 900 57.3 900 85.8C900 114.3 900 142.7 900 171.2C900 199.7 900 228.3 900 257C900 285.7 900 314.3 900 343C900 371.7 900 400.3 900 428.8C900 457.3 900 485.7 900 514.2C900 542.7 900 571.3 900 585.7L900 600Z" fill="#556c8d"></path></svg>