<?xml version="1.0" encoding="UTF-8" standalone="no"?>
<!-- Created with Inkscape (http://www.inkscape.org/) -->

<svg
   width="39.902294mm"
   height="39.902294mm"
   viewBox="0 0 39.902294 39.902294"
   version="1.1"
   id="svg1"
   inkscape:version="1.3.2 (091e20e, 2023-11-25)"
   sodipodi:docname="favicon.svg"
   inkscape:export-filename="favicon.png"
   inkscape:export-xdpi="96"
   inkscape:export-ydpi="96"
   xmlns:inkscape="http://www.inkscape.org/namespaces/inkscape"
   xmlns:sodipodi="http://sodipodi.sourceforge.net/DTD/sodipodi-0.dtd"
   xmlns="http://www.w3.org/2000/svg"
   xmlns:svg="http://www.w3.org/2000/svg">
  <sodipodi:namedview
     id="namedview1"
     pagecolor="#ffffff"
     bordercolor="#000000"
     borderopacity="0.25"
     inkscape:showpageshadow="2"
     inkscape:pageopacity="0.0"
     inkscape:pagecheckerboard="0"
     inkscape:deskcolor="#d1d1d1"
     inkscape:document-units="mm"
     inkscape:zoom="2.5157732"
     inkscape:cx="-48.494038"
     inkscape:cy="87.24952"
     inkscape:window-width="2560"
     inkscape:window-height="1302"
     inkscape:window-x="0"
     inkscape:window-y="25"
     inkscape:window-maximized="0"
     inkscape:current-layer="layer1"
     showguides="false" />
  <defs
     id="defs1">
    <rect
       x="196.07651"
       y="90.702049"
       width="469.51651"
       height="118.71298"
       id="rect2" />
    <rect
       x="196.07651"
       y="90.702049"
       width="469.51651"
       height="118.71298"
       id="rect2-4" />
    <rect
       x="196.07651"
       y="90.702049"
       width="175.55058"
       height="54.895901"
       id="rect2-9" />
  </defs>
  <g
     inkscape:label="Capa 1"
     inkscape:groupmode="layer"
     id="layer1"
     transform="translate(-149.95324,-80.458193)">
    <g
       id="g34"
       transform="translate(-2.9463638)">
      <circle
         style="fill:#efebde;fill-opacity:1;stroke:none;stroke-width:0.13212;stroke-dasharray:none;stroke-opacity:1"
         id="path34"
         cx="172.85075"
         cy="100.40934"
         r="19.951147" />
      <path
         id="path5-6-7"
         style="-inkscape-font-specification:'Bangla MN';fill:#2d2d2d;stroke-width:0.097602"
         d="m 173.81717,87.344186 -1.86147,0.739747 v 5.756564 c -0.21856,-0.0542 -0.44595,-0.0814 -0.68258,-0.0814 -0.87568,0 -1.73828,0.22099 -2.58844,0.66308 -0.85017,0.43358 -1.67068,1.092289 -2.46134,1.976469 v -2.639549 h -0.73975 l -1.86215,0.72697 v 12.573653 h 2.6019 v -9.666454 c 0.28906,-0.28056 0.59062,-0.53576 0.90518,-0.7653 0.31456,-0.22955 0.62895,-0.42489 0.94351,-0.58642 0.32307,-0.17003 0.63813,-0.30191 0.94419,-0.39543 0.30606,-0.0935 0.59479,-0.13988 0.86685,-0.13988 0.30606,0 0.58263,0.0592 0.82918,0.17821 0.25505,0.11053 0.47605,0.27661 0.66309,0.49765 0.18703,0.22105 0.33173,0.49695 0.43376,0.82852 0.0856,0.27111 0.13283,0.58379 0.1466,0.93275 v 1.97512 h 0.006 v 4.455954 h 0.75655 l 1.83256,-0.73974 v -3.716214 h 0.006 l 6.19773,7.141234 h 3.41762 l -7.23068,-8.911244 5.85341,-4.756559 h -1.68326 l -6.55482,5.266989 V 87.344184 Z" />
    </g>
  </g>
</svg>
