<?xml version="1.0" encoding="UTF-8" standalone="no"?>
<!-- Created with Inkscape (http://www.inkscape.org/) -->

<svg
   width="20.87676mm"
   height="20.446213mm"
   viewBox="0 0 20.87676 20.446213"
   version="1.1"
   id="svg1"
   inkscape:version="1.3.2 (091e20e, 2023-11-25)"
   sodipodi:docname="logout.svg"
   inkscape:export-filename="favicon.png"
   inkscape:export-xdpi="96"
   inkscape:export-ydpi="96"
   xmlns:inkscape="http://www.inkscape.org/namespaces/inkscape"
   xmlns:sodipodi="http://sodipodi.sourceforge.net/DTD/sodipodi-0.dtd"
   xmlns="http://www.w3.org/2000/svg"
   xmlns:svg="http://www.w3.org/2000/svg">
  <sodipodi:namedview
     id="namedview1"
     pagecolor="#ffffff"
     bordercolor="#000000"
     borderopacity="0.25"
     inkscape:showpageshadow="2"
     inkscape:pageopacity="0.0"
     inkscape:pagecheckerboard="true"
     inkscape:deskcolor="#d1d1d1"
     inkscape:document-units="mm"
     inkscape:zoom="17.217353"
     inkscape:cx="54.421838"
     inkscape:cy="44.112472"
     inkscape:window-width="1504"
     inkscape:window-height="1104"
     inkscape:window-x="75"
     inkscape:window-y="162"
     inkscape:window-maximized="0"
     inkscape:current-layer="layer1"
     showguides="false" />
  <defs
     id="defs1">
    <rect
       x="196.07651"
       y="90.702049"
       width="469.51651"
       height="118.71298"
       id="rect2" />
    <rect
       x="196.07651"
       y="90.702049"
       width="469.51651"
       height="118.71298"
       id="rect2-4" />
    <rect
       x="196.07651"
       y="90.702049"
       width="175.55058"
       height="54.895901"
       id="rect2-9" />
  </defs>
  <g
     inkscape:label="Capa 1"
     inkscape:groupmode="layer"
     id="layer1"
     transform="translate(-159.46601,-94.671646)">
    <path
       id="path5-6-7-0"
       style="-inkscape-font-specification:'Bangla MN';fill:#fffbef;fill-opacity:1;stroke-width:0.097602"
       d="m 174.77348,112.9 1.8619,-0.7271 5.2e-4,-4.40282 h -2.60191 v 2.528 h -4.64106 V 112.9 h 4.64106 z" />
    <path
       id="path7"
       style="-inkscape-font-specification:'Bangla MN';fill:#fffbef;stroke-width:0.0472441"
       d="m 170.82382,103.75672 2.4e-4,2.27351 8.07315,0.003 1.44556,-1.05558 v -0.1626 l -1.44556,-1.05558 z"
       sodipodi:nodetypes="ccccccc" />
    <path
       id="path17"
       style="-inkscape-font-specification:'Bangla MN';fill:#fffbef;stroke-width:0.097602"
       d="m 167.65402,94.715268 v 6.951002 6.45749 6.95048 h -0.73949 l -1.86242,-0.72657 -1.32136,-0.51625 -2.40296,-0.93793 -1.32136,-0.51573 -0.54054,-0.21135 v -6.2234 -2.09599 -6.223919 l 0.54054,-0.21084 1.32136,-0.515731 2.40296,-0.938444 1.32136,-0.51573 1.86242,-0.727088 z m -2.60191,3.520199 -0.40721,0.158646 v 5.17e-4 l -2.40295,0.937927 -0.17415,0.06821 v 4.446253 2.09599 4.44624 l 0.17415,0.0682 2.40295,0.93792 0.40721,0.15917 v -3.4308 -6.45749 z" />
    <path
       id="path5-6-7"
       style="-inkscape-font-specification:'Bangla MN';fill:#fffbef;fill-opacity:1;stroke-width:0.097602"
       d="m 174.77348,96.889598 1.8619,0.727088 5.2e-4,4.402834 h -2.60191 v -2.528013 h -4.64106 v -2.601909 h 4.64106 z" />
  </g>
</svg>
