<?xml version="1.0" encoding="UTF-8" standalone="no"?>
<!-- Created with Inkscape (http://www.inkscape.org/) -->

<svg
   width="20.87676mm"
   height="20.446213mm"
   viewBox="0 0 20.87676 20.446213"
   version="1.1"
   id="svg1"
   inkscape:version="1.3.2 (091e20e, 2023-11-25)"
   sodipodi:docname="search.svg"
   inkscape:export-filename="favicon.png"
   inkscape:export-xdpi="96"
   inkscape:export-ydpi="96"
   xmlns:inkscape="http://www.inkscape.org/namespaces/inkscape"
   xmlns:sodipodi="http://sodipodi.sourceforge.net/DTD/sodipodi-0.dtd"
   xmlns="http://www.w3.org/2000/svg"
   xmlns:svg="http://www.w3.org/2000/svg">
  <sodipodi:namedview
     id="namedview1"
     pagecolor="#ffffff"
     bordercolor="#000000"
     borderopacity="0.25"
     inkscape:showpageshadow="2"
     inkscape:pageopacity="0.0"
     inkscape:pagecheckerboard="true"
     inkscape:deskcolor="#d1d1d1"
     inkscape:document-units="mm"
     inkscape:zoom="3.9001373"
     inkscape:cx="33.844962"
     inkscape:cy="20.7685"
     inkscape:window-width="904"
     inkscape:window-height="941"
     inkscape:window-x="206"
     inkscape:window-y="138"
     inkscape:window-maximized="0"
     inkscape:current-layer="layer1"
     showguides="false" />
  <defs
     id="defs1">
    <rect
       x="196.07651"
       y="90.702049"
       width="469.51651"
       height="118.71298"
       id="rect2" />
    <rect
       x="196.07651"
       y="90.702049"
       width="469.51651"
       height="118.71298"
       id="rect2-4" />
    <rect
       x="196.07651"
       y="90.702049"
       width="175.55058"
       height="54.895901"
       id="rect2-9" />
  </defs>
  <g
     inkscape:label="Capa 1"
     inkscape:groupmode="layer"
     id="layer1"
     transform="translate(-159.46601,-94.671646)">
    <path
       id="path94"
       style="color:#000000;fill:#96503e;fill-opacity:1;stroke-width:2.35806;-inkscape-stroke:none"
       d="m 168.17466,94.671648 c -4.68397,-2.7e-5 -8.50679,3.8179 -8.50679,8.501882 0,4.68397 3.82282,8.50679 8.50679,8.50677 1.88595,0 3.63114,-0.62086 5.04359,-1.66697 l 5.10459,5.10453 h 0.80666 l 1.01142,-1.01019 -5.46403,-5.46524 c 1.24646,-1.48072 1.99965,-3.38963 1.99965,-5.4689 0,-4.683954 -3.81793,-8.501882 -8.50188,-8.501882 z m 0,2.123945 c 3.53703,0 6.37917,2.84093 6.37917,6.377937 0,3.53702 -2.84214,6.38405 -6.37917,6.38405 -3.53702,0 -6.38282,-2.84703 -6.38282,-6.38405 0,-3.537034 2.8458,-6.377937 6.38282,-6.377937 z" />
  </g>
</svg>
