<?xml version="1.0" encoding="UTF-8" standalone="no"?>
<!-- Created with Inkscape (http://www.inkscape.org/) -->

<svg
   width="20.87676mm"
   height="20.446213mm"
   viewBox="0 0 20.87676 20.446213"
   version="1.1"
   id="svg1"
   inkscape:version="1.3.2 (091e20e, 2023-11-25)"
   sodipodi:docname="star2.svg"
   inkscape:export-filename="favicon.png"
   inkscape:export-xdpi="96"
   inkscape:export-ydpi="96"
   xmlns:inkscape="http://www.inkscape.org/namespaces/inkscape"
   xmlns:sodipodi="http://sodipodi.sourceforge.net/DTD/sodipodi-0.dtd"
   xmlns="http://www.w3.org/2000/svg"
   xmlns:svg="http://www.w3.org/2000/svg">
  <sodipodi:namedview
     id="namedview1"
     pagecolor="#ffffff"
     bordercolor="#000000"
     borderopacity="0.25"
     inkscape:showpageshadow="2"
     inkscape:pageopacity="0.0"
     inkscape:pagecheckerboard="0"
     inkscape:deskcolor="#d1d1d1"
     inkscape:document-units="mm"
     inkscape:zoom="2.0001085"
     inkscape:cx="40.247816"
     inkscape:cy="48.747355"
     inkscape:window-width="1504"
     inkscape:window-height="1104"
     inkscape:window-x="815"
     inkscape:window-y="223"
     inkscape:window-maximized="0"
     inkscape:current-layer="layer1"
     showguides="false" />
  <defs
     id="defs1">
    <rect
       x="196.07651"
       y="90.702049"
       width="469.51651"
       height="118.71298"
       id="rect2" />
    <rect
       x="196.07651"
       y="90.702049"
       width="469.51651"
       height="118.71298"
       id="rect2-4" />
    <rect
       x="196.07651"
       y="90.702049"
       width="175.55058"
       height="54.895901"
       id="rect2-9" />
  </defs>
  <g
     inkscape:label="Capa 1"
     inkscape:groupmode="layer"
     id="layer1"
     transform="translate(-159.46601,-94.671646)">
    <path
       id="path49-0"
       style="-inkscape-font-specification:'Bangla MN';fill:#efebde;stroke-width:0.0937004"
       d="m 169.15804,95.228525 -0.27103,0.833322 -0.29541,0.910626 -1.56864,4.826457 h -5.07539 -4.6e-4 -0.9571 -0.59129 l -0.098,0.13574 -0.41734,0.57426 -0.41736,0.57472 0.89544,0.65064 0.77443,0.56276 4.10632,2.98312 -1.56817,4.82692 -0.29633,0.91062 -0.34189,1.05235 0.6755,0.21949 0.67503,0.21903 0.15967,0.0524 0.47809,-0.34741 0.77488,-0.56322 4.10541,-2.98312 4.10541,2.98266 0.77534,0.56368 0.4781,0.34741 0.15966,-0.0524 0.67504,-0.21903 0.67549,-0.21949 -0.34235,-1.05235 -0.29587,-0.91108 -1.56863,-4.82646 4.10632,-2.98312 0.77443,-0.56276 0.89544,-0.65064 -0.41736,-0.57472 -0.41734,-0.57426 -0.098,-0.13574 h -0.59129 -0.9571 -4.6e-4 -5.07539 l -1.56817,-4.825997 -0.29588,-0.911086 -0.27056,-0.833322 h -0.74682 z m 0.74681,3.204447 0.38284,1.18027 0.4399,1.352358 0.78086,2.40334 h 2.52803 1.42047 1.24193 l -1.00403,0.72979 -1.1499,0.83517 -2.04488,1.48672 0.78132,2.40426 0.43898,1.35236 0.38376,1.17935 -1.00403,-0.72979 -1.15083,-0.83516 -2.04442,-1.4858 -2.04534,1.4858 -1.15083,0.83516 -1.0031,0.72979 0.38283,-1.17935 0.4399,-1.35236 0.78087,-2.40426 -2.04442,-1.48672 -1.15083,-0.83517 -1.00403,-0.72979 h 1.241 1.4214 2.52849 l 0.78087,-2.40334 0.43943,-1.352358 z" />
  </g>
</svg>
