<?xml version="1.0" encoding="UTF-8" standalone="no"?>
<svg
   viewBox="0 0 235.49953 235.52"
   width="45.996002"
   height="46"
   version="1.1"
   id="svg2"
   sodipodi:docname="gear.svg"
   inkscape:version="1.3.2 (091e20e, 2023-11-25)"
   xmlns:inkscape="http://www.inkscape.org/namespaces/inkscape"
   xmlns:sodipodi="http://sodipodi.sourceforge.net/DTD/sodipodi-0.dtd"
   xmlns="http://www.w3.org/2000/svg"
   xmlns:svg="http://www.w3.org/2000/svg">
  <defs
     id="defs2" />
  <sodipodi:namedview
     id="namedview2"
     pagecolor="#ffffff"
     bordercolor="#000000"
     borderopacity="0.25"
     inkscape:showpageshadow="2"
     inkscape:pageopacity="0.0"
     inkscape:pagecheckerboard="0"
     inkscape:deskcolor="#d1d1d1"
     inkscape:zoom="4.72"
     inkscape:cx="23.09322"
     inkscape:cy="23.09322"
     inkscape:window-width="1376"
     inkscape:window-height="449"
     inkscape:window-x="0"
     inkscape:window-y="39"
     inkscape:window-maximized="0"
     inkscape:current-layer="svg2" />
  <g
     fill="#fffbef"
     fill-rule="nonzero"
     stroke="none"
     stroke-width="1"
     stroke-linecap="butt"
     stroke-linejoin="miter"
     stroke-miterlimit="10"
     stroke-dasharray="none"
     stroke-dashoffset="0"
     font-family="none"
     font-weight="none"
     font-size="none"
     text-anchor="none"
     style="mix-blend-mode:normal"
     id="g2"
     transform="translate(-10.25024,-10.24)">
    <g
       transform="scale(5.12)"
       id="g1">
      <path
         d="M 47.16,21.221 41.25,20.255 C 40.904,19.069 40.431,17.929 39.839,16.85 l 3.45,-4.917 c 0.279,-0.397 0.231,-0.938 -0.112,-1.282 L 39.288,6.764 C 38.941,6.418 38.395,6.373 37.997,6.66 l -4.843,3.481 C 32.065,9.539 30.915,9.061 29.722,8.714 L 28.691,2.828 C 28.607,2.35 28.192,2 27.706,2 h -5.5 c -0.49,0 -0.908,0.355 -0.987,0.839 l -0.956,5.854 c -1.2,0.345 -2.352,0.818 -3.437,1.412 l -4.83,-3.45 C 11.597,6.37 11.054,6.416 10.707,6.761 L 6.82,10.648 c -0.343,0.343 -0.391,0.883 -0.112,1.28 l 3.399,4.863 c -0.605,1.095 -1.087,2.254 -1.438,3.46 l -5.831,0.971 c -0.482,0.08 -0.836,0.498 -0.836,0.986 v 5.5 c 0,0.485 0.348,0.9 0.825,0.985 l 5.831,1.034 c 0.349,1.203 0.831,2.362 1.438,3.46 L 6.655,38 c -0.284,0.397 -0.239,0.942 0.106,1.289 l 3.888,3.891 c 0.343,0.343 0.884,0.391 1.281,0.112 l 4.87,-3.411 c 1.093,0.601 2.248,1.078 3.445,1.424 l 0.976,5.861 C 21.3,47.647 21.717,48 22.206,48 h 5.5 c 0.485,0 0.9,-0.348 0.984,-0.825 l 1.045,-5.89 c 1.199,-0.353 2.348,-0.833 3.43,-1.435 l 4.905,3.441 c 0.398,0.281 0.938,0.232 1.282,-0.111 l 3.888,-3.891 c 0.346,-0.347 0.391,-0.894 0.104,-1.292 L 39.846,33.14 c 0.593,-1.08 1.064,-2.222 1.407,-3.408 l 5.918,-1.039 c 0.479,-0.084 0.827,-0.5 0.827,-0.985 v -5.5 C 47.999,21.718 47.644,21.3 47.16,21.221 Z M 25,32 c -3.866,0 -7,-3.134 -7,-7 0,-3.866 3.134,-7 7,-7 3.866,0 7,3.134 7,7 0,3.866 -3.134,7 -7,7 z"
         id="path1" />
    </g>
  </g>
</svg>
