<?xml version="1.0" encoding="UTF-8" standalone="no"?>
<svg
   id="visual"
   viewBox="0 0 960 129.28526"
   width="960"
   height="129.28526"
   version="1.1"
   sodipodi:docname="wave-haikei.svg"
   inkscape:version="1.3.2 (091e20e, 2023-11-25)"
   xmlns:inkscape="http://www.inkscape.org/namespaces/inkscape"
   xmlns:sodipodi="http://sodipodi.sourceforge.net/DTD/sodipodi-0.dtd"
   xmlns="http://www.w3.org/2000/svg"
   xmlns:svg="http://www.w3.org/2000/svg">
  <defs
     id="defs1" />
  <sodipodi:namedview
     id="namedview1"
     pagecolor="#ffffff"
     bordercolor="#000000"
     borderopacity="0.25"
     inkscape:showpageshadow="2"
     inkscape:pageopacity="0.0"
     inkscape:pagecheckerboard="0"
     inkscape:deskcolor="#d1d1d1"
     inkscape:zoom="0.43703704"
     inkscape:cx="480.50847"
     inkscape:cy="270"
     inkscape:window-width="1376"
     inkscape:window-height="449"
     inkscape:window-x="0"
     inkscape:window-y="39"
     inkscape:window-maximized="0"
     inkscape:current-layer="visual" />
  <path
     d="m 0,106 32,6.5 c 32,6.5 96,19.5 160,13.8 64,-5.6 128,-30 192,-35.6 64,-5.7 128,7.3 192,19.1 64,11.9 128,22.5 192,18.7 64,-3.8 128,-22.2 160,-31.3 L 960,88 V 0 H 928 C 896,0 832,0 768,0 704,0 640,0 576,0 512,0 448,0 384,0 320,0 256,0 192,0 128,0 64,0 32,0 H 0 Z"
     fill="#2d2d2d"
     stroke-linecap="round"
     stroke-linejoin="miter"
     id="path1" />
</svg>
